<?xml version="1.0" encoding="utf-8"?>
<!-- Generator: Adobe Illustrator 21.1.0, SVG Export Plug-In . SVG Version: 6.00 Build 0)  -->
<svg version="1.1" id="Layer_1" xmlns="http://www.w3.org/2000/svg" xmlns:xlink="http://www.w3.org/1999/xlink" x="0px" y="0px"
	 viewBox="0 0 164.5 28.5" style="enable-background:new 0 0 164.5 28.5;" xml:space="preserve">
<style type="text/css">
	.st0{fill:#005D97;}
</style>
<g>
	<path class="st0" d="M54.8,0.8c-0.8,0-1.4,0.2-1.8,0.5c-0.5,0.4-0.7,0.9-0.7,1.6v12.2c0,1.5-0.2,2.8-0.4,3.9
		c-0.2,1.1-0.7,2-1.3,2.8c-0.6,0.8-1.4,1.3-2.3,1.7c-1,0.4-2.2,0.6-3.6,0.6s-2.6-0.2-3.6-0.6c-1-0.4-1.8-1-2.3-1.7
		c-0.6-0.8-1-1.7-1.3-2.8s-0.4-2.4-0.4-3.9V1.3C37.3,1.3,37,1.1,36.6,1c-0.4-0.1-0.9-0.2-1.4-0.2c-0.8,0-1.4,0.2-1.8,0.5
		C33,1.7,32.8,2.3,32.8,3v12.6c0,4.1,1,7.3,3.1,9.4c2,2.2,5.1,3.3,9.1,3.3s7.1-1.1,9.1-3.3c2-2.2,3.1-5.3,3.1-9.4V1.3
		c-0.2-0.1-0.4-0.2-0.8-0.3C55.8,0.9,55.4,0.8,54.8,0.8 M24.4,4.1c-1.3-1.3-2.8-2.3-4.5-3c-1.8-0.7-3.6-1.1-5.6-1.1
		c-2,0-3.9,0.4-5.6,1.1C7,1.9,5.4,2.9,4.2,4.1c-1.3,1.3-2.3,2.8-3,4.5C0.3,10.3,0,12.2,0,14.2s0.3,3.9,1.1,5.6
		c0.8,1.7,1.8,3.2,3,4.4c1.3,1.3,2.8,2.2,4.5,3c1.7,0.7,3.6,1.1,5.6,1.1c1.1,0,2.2-0.1,3.3-0.4c1.1-0.2,2-0.6,2.9-1l1.4,1.8l3.4-2.6
		l-1.2-1.5c1.4-1.2,2.5-2.7,3.3-4.5c0.8-1.8,1.2-3.7,1.2-5.8c0-2-0.4-3.9-1.1-5.6C26.7,6.9,25.7,5.4,24.4,4.1 M22.9,18.1
		c-0.5,1.2-1.1,2.2-1.8,2.9l-3.6-4.7c-0.3,0-0.8,0.1-1.1,0.2c-0.4,0.1-0.7,0.2-1,0.4c-0.3,0.2-0.6,0.4-0.8,0.7
		c-0.2,0.2-0.3,0.6-0.3,1c0,0.4,0.1,0.7,0.3,1.1c0.2,0.4,0.5,0.7,0.8,1.1l2.2,2.7c-1,0.5-2.2,0.7-3.4,0.7c-1.4,0-2.6-0.2-3.8-0.8
		c-1.2-0.5-2.2-1.2-3-2.1c-0.9-0.9-1.5-1.9-2-3.1c-0.4-1.2-0.7-2.6-0.7-4c0-1.5,0.2-2.8,0.7-4C6,9,6.7,8,7.5,7.1
		c0.8-0.9,1.9-1.6,3-2.1c1.2-0.5,2.4-0.7,3.8-0.7c1.4,0,2.6,0.3,3.8,0.7c1.2,0.5,2.2,1.2,3,2.1c0.9,0.8,1.5,1.9,2,3.1
		c0.5,1.2,0.7,2.6,0.7,4C23.6,15.6,23.4,16.9,22.9,18.1 M163.4,8.6c-0.8-1.7-1.8-3.2-3-4.5c-1.3-1.3-2.8-2.3-4.5-3
		c-1.7-0.7-3.6-1.1-5.6-1.1c-2,0-3.9,0.4-5.6,1.1c-1.7,0.7-3.3,1.7-4.5,3c-1.3,1.3-2.3,2.8-3,4.5c-0.8,1.7-1.1,3.6-1.1,5.6
		s0.3,3.9,1.1,5.6c0.8,1.7,1.8,3.2,3,4.5c1.3,1.3,2.8,2.3,4.5,3c1.7,0.7,3.6,1.1,5.6,1.1c2,0,3.9-0.4,5.6-1.1c1.7-0.7,3.3-1.7,4.5-3
		c1.3-1.3,2.3-2.8,3-4.5c0.8-1.7,1.1-3.6,1.1-5.6S164.1,10.3,163.4,8.6 M158.9,18.1c-0.5,1.2-1.2,2.2-2,3.1c-0.9,0.9-1.8,1.6-3,2.1
		c-1.2,0.5-2.4,0.8-3.8,0.8s-2.6-0.3-3.8-0.8s-2.2-1.2-3-2.1c-0.9-0.9-1.5-1.9-2-3.1s-0.7-2.5-0.7-4s0.2-2.8,0.7-4
		c0.4-1.2,1.1-2.3,2-3.1c0.9-0.9,1.9-1.6,3-2c1.2-0.5,2.4-0.7,3.8-0.7s2.6,0.3,3.8,0.7c1.2,0.5,2.1,1.2,3,2c0.9,0.9,1.5,1.9,2,3.1
		c0.5,1.2,0.7,2.5,0.7,4S159.4,16.9,158.9,18.1 M83.9,20.1c-0.7-1.7-1.5-3.6-2.3-5.5c-0.8-2-1.6-3.8-2.4-5.6
		c-0.8-1.8-1.5-3.4-2.2-4.8C76.5,2.8,76,1.7,75.6,1c0,0-0.1-0.1-0.3-0.1c-0.1-0.1-0.4-0.2-0.6-0.3c-0.2-0.1-0.5-0.2-0.9-0.2
		c-0.3-0.1-0.7-0.1-1-0.1c-0.9,0-1.7,0.2-2.3,0.6C70,1.2,69.4,1.9,69,2.9c-1,2.1-1.9,4.2-2.8,6.4c-1,2.2-1.9,4.3-2.8,6.5
		c-0.9,2.1-1.7,4.2-2.6,6.2c-0.8,2-1.6,3.9-2.2,5.6h4.7c0.3-0.8,0.7-1.8,1.1-3c0.4-1.2,1-2.5,1.6-4H79c0.2,0.5,0.5,1.1,0.7,1.8
		c0.2,0.7,0.5,1.4,0.8,2c0.3,0.7,0.5,1.3,0.7,1.9c0.2,0.6,0.4,1,0.5,1.3h5.2c-0.2-0.5-0.6-1.5-1.1-2.9
		C85.2,23.3,84.6,21.8,83.9,20.1 M67.6,16.5c0.4-1,0.8-2.1,1.3-3.1c0.5-1.1,0.9-2.1,1.3-3.2c0.5-1,0.9-2,1.3-2.9
		c0.4-0.9,0.8-1.8,1.2-2.5c0.3,0.5,0.6,1.2,1,2.1c0.4,0.9,0.9,1.9,1.3,3c0.4,1.1,0.9,2.3,1.4,3.4c0.5,1.2,0.9,2.2,1.3,3.2H67.6z
		 M131.8,22.2c-0.6,0.4-1.4,0.8-2.6,1.2c-1.2,0.4-2.6,0.6-4.2,0.6c-1.4,0-2.7-0.2-3.9-0.6c-1.2-0.4-2.3-1.1-3.1-1.9
		c-0.9-0.8-1.6-1.9-2.1-3.1c-0.5-1.2-0.8-2.6-0.8-4.2c0-1.6,0.3-3,0.7-4.2c0.5-1.3,1.2-2.3,2-3.2c0.8-0.8,1.8-1.6,3-2
		c1.2-0.5,2.4-0.7,3.7-0.7c0.9,0,1.8,0.1,2.6,0.3c0.8,0.2,1.5,0.5,2.1,0.7c0.6,0.3,1.2,0.6,1.6,1c0.4,0.4,0.8,0.7,1.1,1
		c0.2-0.1,0.4-0.2,0.6-0.4c0.2-0.2,0.4-0.4,0.6-0.6c0.2-0.3,0.4-0.6,0.5-0.9c0.2-0.3,0.2-0.7,0.2-1c0-0.3-0.2-0.7-0.4-1.2
		c-0.3-0.5-0.8-1-1.5-1.4c-0.7-0.4-1.7-0.9-2.8-1.2c-1.2-0.3-2.7-0.5-4.6-0.5c-2,0-3.8,0.3-5.5,1c-1.7,0.6-3.2,1.6-4.5,2.8
		c-1.3,1.2-2.3,2.7-3.1,4.5c-0.8,1.8-1.1,3.8-1.1,6s0.4,4.3,1.2,6c0.8,1.8,1.8,3.2,3.1,4.4c1.3,1.2,2.8,2.1,4.6,2.7
		c1.7,0.6,3.5,0.9,5.5,0.9c1.3,0,2.5-0.1,3.6-0.2c1.1-0.2,2-0.4,2.7-0.7c0.8-0.2,1.4-0.5,1.9-0.8c0.5-0.3,0.9-0.6,1.2-0.8h-0.1
		L131.8,22.2z M95.3,1.3c-0.2,0-0.4-0.1-0.8-0.2c-0.4-0.1-0.8-0.2-1.4-0.2c-0.8,0-1.4,0.2-1.8,0.5S90.7,2.3,90.7,3v24.6H109v-4.3
		H95.3V1.3z"/>
</g>
</svg>
